<?xml version="1.0" standalone="no"?>
<!DOCTYPE svg PUBLIC "-//W3C//DTD SVG 20010904//EN"
 "http://www.w3.org/TR/2001/REC-SVG-20010904/DTD/svg10.dtd">
<svg version="1.0" xmlns="http://www.w3.org/2000/svg"
 width="349.000000pt" height="349.000000pt" viewBox="0 0 349.000000 349.000000"
 preserveAspectRatio="xMidYMid meet">
<metadata>
Created by potrace 1.14, written by Peter Selinger 2001-2017
</metadata>
<g transform="translate(0.000000,349.000000) scale(0.100000,-0.100000)"
fill="#000000" stroke="none">
<path d="M1814 3380 c-63 -19 -120 -104 -140 -208 -13 -71 -13 -78 2 -89 11
-8 32 -10 53 -7 36 6 36 6 49 -43 7 -26 25 -60 39 -76 l27 -27 -24 -22 c-18
-17 -37 -22 -90 -24 -72 -2 -133 -23 -160 -54 -15 -17 -22 -19 -44 -10 -34 13
-107 13 -139 1 -48 -18 -87 -71 -148 -196 -70 -144 -78 -185 -66 -340 8 -112
4 -138 -51 -280 -78 -204 -126 -447 -126 -645 0 -63 14 -217 20 -235 4 -8 3
-22 0 -31 -5 -12 -13 -8 -43 21 -35 32 -36 37 -21 48 15 12 13 19 -27 78 -24
35 -48 69 -52 74 -11 13 -51 151 -55 190 -3 26 -6 23 -23 -30 -28 -88 -27
-317 3 -436 28 -114 81 -247 139 -350 54 -94 189 -238 268 -284 105 -62 270
-106 377 -100 46 2 70 -3 109 -21 27 -13 55 -24 62 -24 7 0 17 -4 22 -9 22
-19 133 -40 200 -38 60 3 77 8 122 37 112 73 124 188 26 254 -52 36 -117 100
-167 165 -91 118 -125 217 -133 383 -9 192 -11 185 195 608 95 195 177 328
287 465 44 55 83 102 86 105 15 13 111 161 124 193 21 50 19 100 -6 150 -25
48 -38 61 -165 158 -51 38 -97 75 -102 82 -7 8 -6 29 4 67 36 141 -11 323
-106 402 -91 75 -245 122 -326 98z m-462 -1472 c3 -26 0 -52 -6 -58 -7 -7 -5
-10 5 -10 12 0 12 -2 -1 -10 -13 -8 -13 -10 1 -10 17 0 19 9 -40 -175 -12 -38
-21 -50 -36 -50 -28 0 -28 45 1 175 50 219 66 250 76 138z"/>
<path d="M2661 2524 c-1 -28 -43 -150 -70 -201 -18 -37 -97 -124 -144 -161
-13 -10 -16 -25 -13 -67 3 -40 0 -58 -11 -67 -8 -7 -36 -39 -61 -73 -25 -33
-49 -62 -52 -65 -3 -3 -11 -14 -17 -25 -45 -72 -129 -206 -149 -236 -13 -19
-24 -40 -24 -46 0 -6 -4 -13 -9 -15 -18 -7 -122 -236 -140 -308 -23 -93 -26
-236 -7 -326 13 -65 68 -198 86 -209 4 -3 11 11 14 30 6 28 14 38 41 50 87 36
237 167 309 269 71 102 106 156 106 165 0 5 4 11 8 13 26 10 117 239 157 394
65 252 64 577 -4 829 -11 39 -20 61 -20 49z"/>
</g>
</svg>
